<svg width="488" height="213" fill="none" xmlns="http://www.w3.org/2000/svg"><path d="M146.287 201.587l-1.691-22.703-.414-5.177c.7 1.59 1.402 3.192 2.105 4.795 2.565 5.456 10.279 20.884 25.717 26.481 3.916 1.424 8.117 2.187 12.574 2.238 11.637 0 20.272-6.944 20.272-17.45 0-13.52-13.138-17.832-27.593-22.525-17.832-5.634-30.595-10.518-30.595-27.6 0-14.83 12.387-26.277 34.162-26.277 12.202 0 23.276 2.633 29.093 5.062l.752 19.155c.08 1.755.162 3.51.243 5.253l-2.12-4.884c-6.168-14.576-18.931-22.144-31.347-22.144-12.763 0-21.024 6.194-21.024 15.772 0 11.815 12.013 16.699 26.843 21.583 14.265 4.694 31.533 9.005 31.533 27.778 0 15.771-11.824 29.088-34.349 29.279-15.016 0-27.967-4.503-34.161-8.636z" fill="#fff"/><path d="M146.009 202.002l-.203-.135-.018-.243-1.69-22.7v-.002l-.415-5.175.956-.242c.7 1.589 1.402 3.19 2.103 4.79 2.569 5.464 10.21 20.7 25.432 26.217l.001.001c3.86 1.404 8.004 2.158 12.406 2.208 5.72 0 10.667-1.707 14.175-4.667 3.501-2.955 5.594-7.178 5.594-12.283 0-6.552-3.163-10.869-8.151-14.155-5.023-3.31-11.849-5.541-19.095-7.894-8.9-2.812-16.632-5.463-22.131-9.583-5.546-4.155-8.811-9.795-8.811-18.493 0-7.565 3.164-14.277 9.1-19.088 5.929-4.805 14.59-7.689 25.562-7.689 12.262 0 23.402 2.644 29.286 5.101l.294.123.013.319.751 19.151.001.002.242 5.25-.958.223-1.06-2.442-.02-.047-1.04-2.395-.002-.004c-6.091-14.397-18.677-21.839-30.886-21.839-6.307 0-11.448 1.531-14.998 4.195-3.538 2.653-5.526 6.449-5.526 11.077 0 5.695 2.877 9.732 7.642 12.978 4.79 3.263 11.435 5.686 18.857 8.13.897.296 1.808.59 2.727.887 6.355 2.051 13.117 4.235 18.508 7.78 6.215 4.086 10.642 10.003 10.642 19.586 0 8.015-3.006 15.424-8.888 20.85-5.881 5.424-14.596 8.832-25.957 8.929v0h-.004c-15.099 0-28.15-4.524-34.439-8.721z" stroke="#fff" stroke-opacity=".3"/><path d="M146.009 202.002l-.203-.135-.018-.243-1.69-22.7v-.002l-.415-5.175.956-.242c.7 1.589 1.402 3.19 2.103 4.79 2.569 5.464 10.21 20.7 25.432 26.217l.001.001c3.86 1.404 8.004 2.158 12.406 2.208 5.72 0 10.667-1.707 14.175-4.667 3.501-2.955 5.594-7.178 5.594-12.283 0-6.552-3.163-10.869-8.151-14.155-5.023-3.31-11.849-5.541-19.095-7.894-8.9-2.812-16.632-5.463-22.131-9.583-5.546-4.155-8.811-9.795-8.811-18.493 0-7.565 3.164-14.277 9.1-19.088 5.929-4.805 14.59-7.689 25.562-7.689 12.262 0 23.402 2.644 29.286 5.101l.294.123.013.319.751 19.151.001.002.242 5.25-.958.223-1.06-2.442-.02-.047-1.04-2.395-.002-.004c-6.091-14.397-18.677-21.839-30.886-21.839-6.307 0-11.448 1.531-14.998 4.195-3.538 2.653-5.526 6.449-5.526 11.077 0 5.695 2.877 9.732 7.642 12.978 4.79 3.263 11.435 5.686 18.857 8.13.897.296 1.808.59 2.727.887 6.355 2.051 13.117 4.235 18.508 7.78 6.215 4.086 10.642 10.003 10.642 19.586 0 8.015-3.006 15.424-8.888 20.85-5.881 5.424-14.596 8.832-25.957 8.929v0h-.004c-15.099 0-28.15-4.524-34.439-8.721z" stroke="#C82C87" stroke-opacity=".1"/><path d="M242.972 82.321c17.043-17.052 27.746-51.789 9.512-68.183-14.004-12.94-31.182-7.928-44.395 5.281-16.78 16.784-27.35 49.021-9.778 66.598 14.138 14.136 31.844 9.124 44.661-3.696zm-52.587-65.535c20.612-20.614 51.396-18.37 69.5-.27 16.383 16.381 24.443 44.533.924 68.05-22.594 22.588-53.643 15.856-69.235.268-16.78-16.784-24.18-45.056-1.189-68.049z" fill="#fff"/><path d="M252.145 14.505l.005.005c8.933 8.031 10.826 20.6 8.316 33.376-2.508 12.771-9.399 25.628-17.848 34.082-6.356 6.357-13.892 10.745-21.55 11.814-7.636 1.067-15.441-1.158-22.403-8.119 0 0 0 0 0 0m53.48-71.157l.339-.368c-14.004-12.94-31.182-7.928-44.395 5.281-16.78 16.784-27.35 49.021-9.778 66.598l.354-.354m53.48-71.157c-6.89-6.367-14.531-8.301-22.073-7.04m22.073 7.04l-22.073-7.04m-31.407 78.197c-8.627-8.628-10.38-20.886-7.857-33.141 2.523-12.256 9.312-24.424 17.634-32.75m-9.777 65.891l9.777-65.89m0 0c6.559-6.556 14.067-11.043 21.63-12.307m-21.63 12.307l21.63-12.307m31.091 77.453l-.354-.353.354.353c-22.831 22.826-54.2 16.008-69.943.269h0c-8.458-8.46-14.567-19.83-15.653-32.006-1.087-12.192 2.867-25.153 14.464-36.75 20.82-20.822 51.922-18.551 70.207-.269 8.259 8.257 14.434 19.494 15.57 31.656 1.137 12.18-2.785 25.241-14.645 37.1z" stroke="#fff" stroke-opacity=".3"/><path d="M252.145 14.505l.005.005c8.933 8.031 10.826 20.6 8.316 33.376-2.508 12.771-9.399 25.628-17.848 34.082-6.356 6.357-13.892 10.745-21.55 11.814-7.636 1.067-15.441-1.158-22.403-8.119 0 0 0 0 0 0m53.48-71.157l.339-.368c-14.004-12.94-31.182-7.928-44.395 5.281-16.78 16.784-27.35 49.021-9.778 66.598l.354-.354m53.48-71.157c-6.89-6.367-14.531-8.301-22.073-7.04m22.073 7.04l-22.073-7.04m-31.407 78.197c-8.627-8.628-10.38-20.886-7.857-33.141 2.523-12.256 9.312-24.424 17.634-32.75m-9.777 65.891l9.777-65.89m0 0c6.559-6.556 14.067-11.043 21.63-12.307m-21.63 12.307l21.63-12.307m31.091 77.453l-.354-.353.354.353c-22.831 22.826-54.2 16.008-69.943.269h0c-8.458-8.46-14.567-19.83-15.653-32.006-1.087-12.192 2.867-25.153 14.464-36.75 20.82-20.822 51.922-18.551 70.207-.269 8.259 8.257 14.434 19.494 15.57 31.656 1.137 12.18-2.785 25.241-14.645 37.1z" stroke="#C82C87" stroke-opacity=".1"/><path d="M352.3 82.321c17.044-17.052 27.746-51.789 9.512-68.183-14.005-12.94-31.182-7.928-44.394 5.281-16.78 16.784-27.352 49.021-9.778 66.598 14.137 14.136 31.844 9.124 44.66-3.696zm-52.588-65.535c20.611-20.614 51.398-18.37 69.499-.27 16.385 16.381 24.445 44.533.924 68.05-22.592 22.588-53.643 15.856-69.234.268-16.779-16.784-24.178-45.056-1.189-68.049z" fill="#fff"/><path d="M300.548 85.188h0c15.741 15.739 47.111 22.557 69.941-.269C382.35 73.06 386.273 60 385.135 47.82c-1.135-12.163-7.311-23.4-15.571-31.657l-69.016 69.025zm0 0c-8.458-8.46-14.567-19.83-15.653-32.006-1.087-12.192 2.868-25.153 14.464-36.75 20.819-20.822 51.923-18.551 70.205-.269l-69.016 69.025zm60.93-70.678l-.005-.005c-6.891-6.366-14.531-8.3-22.073-7.04-7.563 1.265-15.071 5.752-21.629 12.308-8.322 8.325-15.111 20.493-17.635 32.749-2.523 12.255-.769 24.513 7.858 33.141 6.961 6.961 14.767 9.186 22.402 8.12 7.658-1.07 15.194-5.458 21.55-11.815 8.45-8.454 15.34-21.31 17.848-34.082 2.51-12.777.616-25.345-8.316-33.376z" stroke="#fff" stroke-opacity=".3"/><path d="M300.548 85.188h0c15.741 15.739 47.111 22.557 69.941-.269C382.35 73.06 386.273 60 385.135 47.82c-1.135-12.163-7.311-23.4-15.571-31.657l-69.016 69.025zm0 0c-8.458-8.46-14.567-19.83-15.653-32.006-1.087-12.192 2.868-25.153 14.464-36.75 20.819-20.822 51.923-18.551 70.205-.269l-69.016 69.025zm60.93-70.678l-.005-.005c-6.891-6.366-14.531-8.3-22.073-7.04-7.563 1.265-15.071 5.752-21.629 12.308-8.322 8.325-15.111 20.493-17.635 32.749-2.523 12.255-.769 24.513 7.858 33.141 6.961 6.961 14.767 9.186 22.402 8.12 7.658-1.07 15.194-5.458 21.55-11.815 8.45-8.454 15.34-21.31 17.848-34.082 2.51-12.777.616-25.345-8.316-33.376z" stroke="#C82C87" stroke-opacity=".1"/><path d="M464.041 97.395c7.206-5.253 14.41-10.507 21.615-15.747-1.857.764-3.973.496-5.525-.724-2.147-1.688-2.085-4.302-2.074-4.57V37.971a85.296 85.296 0 00-.961-12.317v.014h-.003a88.833 88.833 0 00-.501-2.453c-1.947-8.483-5.626-13.603-9.994-16.578-5.318-3.605-11.097-3.672-13.155-3.659-16.744.108-32.431 19.205-40.27 30.584l.031-18.294L413.375 2a20025.528 20025.528 0 01-21.615 15.747c1.856-.764 3.973-.495 5.524.724 1.289 1.019 1.775 2.359 1.961 3.324v4.128l.083 58.164-.17 13.268 21.613-15.76c-1.855.777-3.972.495-5.523-.724-2.147-1.675-2.085-4.289-2.075-4.557v-41.09a168.603 168.603 0 018.89-9.596c13.811-13.831 18.897-14.662 21.572-14.77 5.846-.227 10.171 2.574 11.305 3.365 5.2 3.672 9.271 10.882 9.271 24.137v45.767c-.058 4.423-.114 8.846-.17 13.269z" fill="#fff"/><path d="M463.528 98.388l.807-.589 2.605-1.898c6.337-4.62 12.673-9.24 19.01-13.849l-.485-.866c-1.695.698-3.62.45-5.025-.655-1.942-1.527-1.894-3.912-1.884-4.157l.001-.01V37.97a85.243 85.243 0 00-.267-6.323s0 0 0 0l-.499.04a85.497 85.497 0 00-.619-5.518l-13.644 72.22zm0 0l.013-.999v-.011c.056-4.418.112-8.836.17-13.254V38.36c0-13.152-4.035-20.18-9.058-23.728-1.106-.77-5.318-3.495-10.999-3.274-2.478.1-7.449.815-21.237 14.623a168.302 168.302 0 00-8.744 9.427v40.926c-.01.246-.058 2.629 1.883 4.143h.001c1.406 1.106 3.331 1.365 5.021.656l.488.866-20.516 14.96-1.098.8-.807.59.013-1 .17-13.264-.041-28.891-.042-29.27v-4.081c-.179-.89-.628-2.076-1.77-2.979-1.404-1.104-3.329-1.352-5.025-.654l-.484-.867c6.766-4.92 13.53-9.852 20.295-14.785l1.319-.962.807-.589-.013 1-.085 6.634-.085 6.63-.015 9.145-.013 7.551m49.852 66.421l-49.852-66.421m0 0c3.906-5.531 9.45-12.517 15.961-18.297 7.025-6.238 15.248-11.137 23.802-11.192 2.079-.013 7.989.05 13.439 3.745h.001c4.493 3.061 8.231 8.301 10.2 16.88l.001.005c.181.823.348 1.645.504 2.467l-.049.009-63.859 6.383z" stroke="#fff" stroke-opacity=".3"/><path d="M463.528 98.388l.807-.589 2.605-1.898c6.337-4.62 12.673-9.24 19.01-13.849l-.485-.866c-1.695.698-3.62.45-5.025-.655-1.942-1.527-1.894-3.912-1.884-4.157l.001-.01V37.97a85.243 85.243 0 00-.267-6.323s0 0 0 0l-.499.04a85.497 85.497 0 00-.619-5.518l-13.644 72.22zm0 0l.013-.999v-.011c.056-4.418.112-8.836.17-13.254V38.36c0-13.152-4.035-20.18-9.058-23.728-1.106-.77-5.318-3.495-10.999-3.274-2.478.1-7.449.815-21.237 14.623a168.302 168.302 0 00-8.744 9.427v40.926c-.01.246-.058 2.629 1.883 4.143h.001c1.406 1.106 3.331 1.365 5.021.656l.488.866-20.516 14.96-1.098.8-.807.59.013-1 .17-13.264-.041-28.891-.042-29.27v-4.081c-.179-.89-.628-2.076-1.77-2.979-1.404-1.104-3.329-1.352-5.025-.654l-.484-.867c6.766-4.92 13.53-9.852 20.295-14.785l1.319-.962.807-.589-.013 1-.085 6.634-.085 6.63-.015 9.145-.013 7.551m49.852 66.421l-49.852-66.421m0 0c3.906-5.531 9.45-12.517 15.961-18.297 7.025-6.238 15.248-11.137 23.802-11.192 2.079-.013 7.989.05 13.439 3.745h.001c4.493 3.061 8.231 8.301 10.2 16.88l.001.005c.181.823.348 1.645.504 2.467l-.049.009-63.859 6.383z" stroke="#C82C87" stroke-opacity=".1"/><path d="M296.56 193.816c-12.817 12.818-30.523 17.83-44.66 3.699-17.574-17.575-7.003-49.816 9.777-66.6 13.214-13.213 30.391-18.225 44.396-5.28 18.234 16.388 7.532 51.129-9.513 68.181zm-52.588-65.541c-22.99 22.995-15.59 51.27 1.19 68.054 15.59 15.585 46.642 22.319 69.235-.268 23.519-23.518 15.459-51.666-.925-68.054-18.102-18.098-48.887-20.343-69.5.268z" fill="#fff"/><path d="M305.738 126.007l-.005-.005c-6.89-6.369-14.531-8.304-22.072-7.043-7.564 1.264-15.072 5.751-21.631 12.309-8.323 8.325-15.111 20.494-17.635 32.751-2.523 12.256-.769 24.514 7.858 33.142 6.961 6.958 14.767 9.181 22.403 8.115 7.658-1.07 15.194-5.457 21.55-11.813 8.45-8.454 15.341-21.312 17.849-34.083 2.51-12.777.616-25.345-8.317-33.373zm-62.12 1.914h0c20.821-20.818 51.923-18.547 70.208-.268h0c8.258 8.261 14.434 19.499 15.57 31.661 1.138 12.179-2.785 25.24-14.645 37.1h-.001c-22.83 22.824-54.2 16.004-69.942.268h0c-8.458-8.46-14.567-19.83-15.653-32.007-1.087-12.193 2.867-25.155 14.463-36.754z" stroke="#fff" stroke-opacity=".3"/><path d="M305.738 126.007l-.005-.005c-6.89-6.369-14.531-8.304-22.072-7.043-7.564 1.264-15.072 5.751-21.631 12.309-8.323 8.325-15.111 20.494-17.635 32.751-2.523 12.256-.769 24.514 7.858 33.142 6.961 6.958 14.767 9.181 22.403 8.115 7.658-1.07 15.194-5.457 21.55-11.813 8.45-8.454 15.341-21.312 17.849-34.083 2.51-12.777.616-25.345-8.317-33.373zm-62.12 1.914h0c20.821-20.818 51.923-18.547 70.208-.268h0c8.258 8.261 14.434 19.499 15.57 31.661 1.138 12.179-2.785 25.24-14.645 37.1h-.001c-22.83 22.824-54.2 16.004-69.942.268h0c-8.458-8.46-14.567-19.83-15.653-32.007-1.087-12.193 2.867-25.155 14.463-36.754z" stroke="#C82C87" stroke-opacity=".1"/><path d="M466.617 124.4l-.026 34.22v28.374h-.03v10.259l-.164 12.793c6.944-5.066 13.887-10.119 20.831-15.185-1.788.742-3.829.486-5.323-.691-1.242-.972-1.71-2.264-1.891-3.198a3478.968 3478.968 0 01.159-89.624l-20.905 15.236c1.794-.742 3.841-.474 5.342.703 2.077 1.625 2.018 4.158 2.007 4.414v2.699z" fill="#fff"/><path d="M485.876 195.228a5.248 5.248 0 01-3.971-1.058c-1.242-.972-1.71-2.264-1.891-3.198m5.862 4.256l-5.867-81.049c-.284 25.853-.276 51.451.005 76.793m5.862 4.256l1.057-.771.295.404.192.462a5.98 5.98 0 01-1.348.382l-9.259 6.748c-3.304 2.408-6.608 4.815-9.911 7.225l-.005.374-.5-.006-.295-.404.303-.221.156-12.168 19.315-2.025zm-5.862-4.256l.491-.095.009.044m-.5.051l.5-.005v-.046m0 0c.173.86.604 1.998 1.699 2.856l.002.001c1.346 1.06 3.194 1.297 4.822.621l.486.866c-3.472 2.533-6.943 5.062-10.415 7.592l-.001.001c-3.472 2.529-6.944 5.059-10.415 7.592l-.808.589.013-1 .164-12.789v-10.756h.03V158.62v0l.025-33.337.001-.883h.5-.5v-2.722c.011-.23.056-2.533-1.815-3.997h-.001c-1.355-1.063-3.21-1.31-4.842-.635l-.486-.866 10.445-7.612.008-.006 10.453-7.618.809-.59-.015 1.001c-.063 4.272-.118 8.544-.164 12.829h0c-.283 25.835-.276 51.413.005 76.737z" stroke="#fff" stroke-opacity=".3"/><path d="M485.876 195.228a5.248 5.248 0 01-3.971-1.058c-1.242-.972-1.71-2.264-1.891-3.198m5.862 4.256l-5.867-81.049c-.284 25.853-.276 51.451.005 76.793m5.862 4.256l1.057-.771.295.404.192.462a5.98 5.98 0 01-1.348.382l-9.259 6.748c-3.304 2.408-6.608 4.815-9.911 7.225l-.005.374-.5-.006-.295-.404.303-.221.156-12.168 19.315-2.025zm-5.862-4.256l.491-.095.009.044m-.5.051l.5-.005v-.046m0 0c.173.86.604 1.998 1.699 2.856l.002.001c1.346 1.06 3.194 1.297 4.822.621l.486.866c-3.472 2.533-6.943 5.062-10.415 7.592l-.001.001c-3.472 2.529-6.944 5.059-10.415 7.592l-.808.589.013-1 .164-12.789v-10.756h.03V158.62v0l.025-33.337.001-.883h.5-.5v-2.722c.011-.23.056-2.533-1.815-3.997h-.001c-1.355-1.063-3.21-1.31-4.842-.635l-.486-.866 10.445-7.612.008-.006 10.453-7.618.809-.59-.015 1.001c-.063 4.272-.118 8.544-.164 12.829h0c-.283 25.835-.276 51.413.005 76.737z" stroke="#C82C87" stroke-opacity=".1"/><path d="M4.32 134.24c0-4.108 3.39-7.811 7.877-7.811 2.706 0 5 1.34 6.13 3.906l-2.121 1.238c-.925-1.82-2.365-2.742-4.146-2.742-2.808 0-4.863 2.287-4.863 5.409 0 3.008 1.917 5.207 4.932 5.207 2.02 0 3.596-.96 4.213-2.679l2.09 1.276c-.995 2.149-3.29 3.792-6.27 3.792-4.35 0-7.842-3.425-7.842-7.596z" fill="#fff"/><path d="M18.785 130.133l.18.409-.385.225-2.122 1.238-.458.267-.24-.472c-.851-1.674-2.13-2.469-3.7-2.469-2.483 0-4.363 2.012-4.363 4.909 0 1.398.444 2.573 1.202 3.392.755.816 1.85 1.315 3.23 1.315 1.853 0 3.21-.866 3.743-2.348l.207-.578.524.32 2.09 1.277.38.232-.187.405c-1.078 2.327-3.55 4.081-6.723 4.081-4.613 0-8.343-3.636-8.343-8.096 0-4.373 3.604-8.311 8.377-8.311 2.887 0 5.372 1.442 6.588 4.204z" stroke="#fff" stroke-opacity=".3"/><path d="M18.785 130.133l.18.409-.385.225-2.122 1.238-.458.267-.24-.472c-.851-1.674-2.13-2.469-3.7-2.469-2.483 0-4.363 2.012-4.363 4.909 0 1.398.444 2.573 1.202 3.392.755.816 1.85 1.315 3.23 1.315 1.853 0 3.21-.866 3.743-2.348l.207-.578.524.32 2.09 1.277.38.232-.187.405c-1.078 2.327-3.55 4.081-6.723 4.081-4.613 0-8.343-3.636-8.343-8.096 0-4.373 3.604-8.311 8.377-8.311 2.887 0 5.372 1.442 6.588 4.204z" stroke="#C82C87" stroke-opacity=".1"/><path d="M33.195 134.139c0-3.122-2.09-5.308-4.76-5.308-2.672 0-4.763 2.186-4.763 5.308 0 3.109 2.09 5.308 4.762 5.308 2.67 0 4.761-2.199 4.761-5.308zm-12.398 0c0-4.108 3.561-7.71 7.637-7.71s7.637 3.602 7.637 7.71c0 4.108-3.56 7.697-7.637 7.697-4.076 0-7.637-3.589-7.637-7.697z" fill="#fff"/><path d="M32.695 134.139c0-2.889-1.907-4.808-4.26-4.808-2.355 0-4.263 1.919-4.263 4.808 0 2.877 1.909 4.808 4.262 4.808 2.353 0 4.261-1.931 4.261-4.808zm-12.398 0c0-4.379 3.78-8.21 8.137-8.21 4.357 0 8.137 3.831 8.137 8.21 0 4.38-3.78 8.197-8.137 8.197-4.355 0-8.137-3.817-8.137-8.197z" stroke="#fff" stroke-opacity=".3"/><path d="M32.695 134.139c0-2.889-1.907-4.808-4.26-4.808-2.355 0-4.263 1.919-4.263 4.808 0 2.877 1.909 4.808 4.262 4.808 2.353 0 4.261-1.931 4.261-4.808zm-12.398 0c0-4.379 3.78-8.21 8.137-8.21 4.357 0 8.137 3.831 8.137 8.21 0 4.38-3.78 8.197-8.137 8.197-4.355 0-8.137-3.817-8.137-8.197z" stroke="#C82C87" stroke-opacity=".1"/><path d="M37.992 138.727l2.056-1.542c1.335 1.744 2.74 2.426 4.796 2.426 2.362 0 3.698-.821 3.698-2.224 0-1.403-1.679-2.325-4.076-2.325H42.65v-2.225h1.574c2.296 0 3.768-.821 3.768-2.098 0-1.226-1.369-2.085-3.287-2.085-1.748 0-3.118.619-4.282 1.782l-1.679-1.643c1.44-1.58 3.632-2.364 6.099-2.364 3.698 0 5.992 1.782 5.992 3.906 0 1.605-1.2 2.982-3.597 3.463v.063c2.468.24 4.145 1.681 4.145 3.602 0 2.224-2.226 4.373-6.54 4.373-2.708 0-5.173-.721-6.852-3.109z" fill="#fff"/><path d="M37.583 139.014l-.279-.396.388-.291 2.056-1.542.397-.297.3.393c.635.829 1.265 1.378 1.955 1.724.689.346 1.473.506 2.444.506 1.135 0 1.956-.199 2.476-.513.493-.299.722-.7.722-1.211 0-.468-.27-.906-.885-1.253-.622-.351-1.548-.572-2.691-.572H42.15v-3.225h2.074c1.098 0 1.947-.198 2.502-.507.542-.302.766-.681.766-1.091 0-.401-.217-.779-.691-1.08-.482-.305-1.205-.505-2.096-.505-1.609 0-2.854.562-3.929 1.636l-.35.349-.353-.346-1.678-1.643-.345-.337.325-.357c1.559-1.711 3.9-2.527 6.468-2.527 1.924 0 3.527.464 4.665 1.245 1.142.784 1.827 1.902 1.827 3.161 0 1.454-.833 2.68-2.344 3.412 1.723.638 2.892 1.967 2.892 3.716 0 2.627-2.596 4.873-7.04 4.873-2.798 0-5.454-.75-7.26-3.322z" stroke="#fff" stroke-opacity=".3"/><path d="M37.583 139.014l-.279-.396.388-.291 2.056-1.542.397-.297.3.393c.635.829 1.265 1.378 1.955 1.724.689.346 1.473.506 2.444.506 1.135 0 1.956-.199 2.476-.513.493-.299.722-.7.722-1.211 0-.468-.27-.906-.885-1.253-.622-.351-1.548-.572-2.691-.572H42.15v-3.225h2.074c1.098 0 1.947-.198 2.502-.507.542-.302.766-.681.766-1.091 0-.401-.217-.779-.691-1.08-.482-.305-1.205-.505-2.096-.505-1.609 0-2.854.562-3.929 1.636l-.35.349-.353-.346-1.678-1.643-.345-.337.325-.357c1.559-1.711 3.9-2.527 6.468-2.527 1.924 0 3.527.464 4.665 1.245 1.142.784 1.827 1.902 1.827 3.161 0 1.454-.833 2.68-2.344 3.412 1.723.638 2.892 1.967 2.892 3.716 0 2.627-2.596 4.873-7.04 4.873-2.798 0-5.454-.75-7.26-3.322z" stroke="#C82C87" stroke-opacity=".1"/><path d="M65.257 139.172v-10.071h-5.72l-.138 2.945c-.24 5.067-.65 6.381-1.507 7.089v.037h7.365zm-11.542 0h.993c1.404 0 1.815-1.465 2.123-7.126l.274-5.27h10.858v12.396h2.088v6.23h-2.533v-3.904h-11.27v3.904h-2.533v-6.23z" fill="#fff"/><path d="M59.898 132.069h0c-.12 2.535-.283 4.17-.533 5.267-.127.554-.279.987-.466 1.336h5.858v-9.071h-4.743l-.116 2.468zm-6.683 7.103v-.5h1.493c.254 0 .41-.062.539-.182.146-.137.306-.399.454-.899.297-1.009.476-2.73.63-5.572v-.001l.275-5.268.024-.474h11.833v12.396h2.088v7.23h-3.533v-3.904h-10.27v3.904h-3.533v-6.73z" stroke="#fff" stroke-opacity=".3"/><path d="M59.898 132.069h0c-.12 2.535-.283 4.17-.533 5.267-.127.554-.279.987-.466 1.336h5.858v-9.071h-4.743l-.116 2.468zm-6.683 7.103v-.5h1.493c.254 0 .41-.062.539-.182.146-.137.306-.399.454-.899.297-1.009.476-2.73.63-5.572v-.001l.275-5.268.024-.474h11.833v12.396h2.088v7.23h-3.533v-3.904h-10.27v3.904h-3.533v-6.73z" stroke="#C82C87" stroke-opacity=".1"/><path d="M82.352 135.34v-1.302c-.516.885-1.303 1.062-2.98 1.264-1.92.24-3.975.442-3.975 2.363 0 1.302.823 2.123 2.638 2.123 2.397 0 4.317-1.339 4.317-4.448zm-9.694 2.489c0-3.286 3.287-4.006 6.37-4.347 2.398-.266 3.287-.379 3.287-2.124 0-1.782-.959-2.628-3.116-2.628-1.952 0-3.254.707-3.906 2.047l-1.95-1.163c.958-2.06 3.288-3.185 6.198-3.185 3.528 0 5.584 1.782 5.584 5.448v9.618h-2.74v-2.528c-.789 1.883-2.535 2.869-4.967 2.869-2.945 0-4.76-1.428-4.76-4.007z" fill="#fff"/><path d="M75.743 130.996l-.238.489-.468-.278-1.95-1.163-.387-.231.19-.409c1.07-2.303 3.631-3.475 6.651-3.475 1.842 0 3.38.466 4.459 1.486 1.083 1.025 1.625 2.537 1.625 4.462v10.118h-3.74v-1.334c-1.047 1.116-2.595 1.675-4.467 1.675-1.546 0-2.863-.374-3.803-1.151-.953-.788-1.457-1.94-1.457-3.356 0-.909.23-1.669.646-2.294.414-.622.993-1.081 1.65-1.426 1.3-.682 2.977-.954 4.52-1.124a23.994 23.994 0 001.491-.194c.403-.072.678-.155.87-.257a.746.746 0 00.35-.356c.078-.167.13-.419.13-.82 0-.803-.213-1.295-.573-1.602-.378-.322-1.015-.526-2.043-.526-1.82 0-2.911.646-3.456 1.766zm6.11 4.344v-.121l-2.481.083.062.496h-.001l-.122.015c-.941.118-1.805.225-2.45.5-.327.139-.561.307-.715.509-.148.195-.249.458-.249.843 0 .541.167.918.462 1.169.31.263.835.454 1.676.454 1.11 0 2.054-.309 2.717-.925.656-.608 1.1-1.575 1.1-3.023z" stroke="#fff" stroke-opacity=".3"/><path d="M75.743 130.996l-.238.489-.468-.278-1.95-1.163-.387-.231.19-.409c1.07-2.303 3.631-3.475 6.651-3.475 1.842 0 3.38.466 4.459 1.486 1.083 1.025 1.625 2.537 1.625 4.462v10.118h-3.74v-1.334c-1.047 1.116-2.595 1.675-4.467 1.675-1.546 0-2.863-.374-3.803-1.151-.953-.788-1.457-1.94-1.457-3.356 0-.909.23-1.669.646-2.294.414-.622.993-1.081 1.65-1.426 1.3-.682 2.977-.954 4.52-1.124a23.994 23.994 0 001.491-.194c.403-.072.678-.155.87-.257a.746.746 0 00.35-.356c.078-.167.13-.419.13-.82 0-.803-.213-1.295-.573-1.602-.378-.322-1.015-.526-2.043-.526-1.82 0-2.911.646-3.456 1.766zm6.11 4.344v-.121l-2.481.083.062.496h-.001l-.122.015c-.941.118-1.805.225-2.45.5-.327.139-.561.307-.715.509-.148.195-.249.458-.249.843 0 .541.167.918.462 1.169.31.263.835.454 1.676.454 1.11 0 2.054-.309 2.717-.925.656-.608 1.1-1.575 1.1-3.023z" stroke="#C82C87" stroke-opacity=".1"/><path d="M100.332 137.088c0-1.201-1.028-2.161-4.144-2.161h-2.98v4.448h3.22c2.876 0 3.904-.948 3.904-2.287zm-.583-6.129c0-1.301-1.196-2.06-3.527-2.06H93.21v4.145h2.944c2.604 0 3.596-1.023 3.596-2.085zm-9.315-4.182h5.481c4.761 0 6.643 1.478 6.643 3.765 0 1.719-1.334 2.919-3.595 3.26v.064c2.842.278 4.28 1.579 4.28 3.487 0 2.439-2.329 4.145-6.952 4.145h-5.857v-14.721z" fill="#fff"/><path d="M89.934 126.777v-.5h5.981c2.416 0 4.187.372 5.369 1.099 1.22.75 1.774 1.857 1.774 3.166a3.309 3.309 0 01-1.114 2.518c-.3.271-.653.502-1.05.692.627.212 1.162.5 1.596.863.834.698 1.253 1.644 1.253 2.738 0 1.406-.683 2.595-1.976 3.41-1.27.801-3.114 1.235-5.476 1.235h-6.357v-15.221zm9.898 10.311c0-.428-.167-.804-.662-1.103-.532-.321-1.46-.558-2.982-.558h-2.48v3.448h2.72c1.4 0 2.26-.233 2.756-.559.461-.303.648-.708.648-1.228zm-.583-6.129c0-.465-.198-.821-.645-1.088-.48-.286-1.257-.472-2.382-.472H93.71v3.145h2.444c1.246 0 2.033-.246 2.494-.558.444-.301.602-.671.602-1.027z" stroke="#fff" stroke-opacity=".3"/><path d="M89.934 126.777v-.5h5.981c2.416 0 4.187.372 5.369 1.099 1.22.75 1.774 1.857 1.774 3.166a3.309 3.309 0 01-1.114 2.518c-.3.271-.653.502-1.05.692.627.212 1.162.5 1.596.863.834.698 1.253 1.644 1.253 2.738 0 1.406-.683 2.595-1.976 3.41-1.27.801-3.114 1.235-5.476 1.235h-6.357v-15.221zm9.898 10.311c0-.428-.167-.804-.662-1.103-.532-.321-1.46-.558-2.982-.558h-2.48v3.448h2.72c1.4 0 2.26-.233 2.756-.559.461-.303.648-.708.648-1.228zm-.583-6.129c0-.465-.198-.821-.645-1.088-.48-.286-1.257-.472-2.382-.472H93.71v3.145h2.444c1.246 0 2.033-.246 2.494-.558.444-.301.602-.671.602-1.027z" stroke="#C82C87" stroke-opacity=".1"/><path d="M115.918 135.34v-1.302c-.514.885-1.301 1.062-2.98 1.264-1.917.24-3.972.442-3.972 2.363 0 1.302.823 2.123 2.638 2.123 2.397 0 4.314-1.339 4.314-4.448zm-9.693 2.489c0-3.286 3.288-4.006 6.371-4.347 2.397-.266 3.287-.379 3.287-2.124 0-1.782-.958-2.628-3.117-2.628-1.95 0-3.253.707-3.904 2.047l-1.951-1.163c.958-2.06 3.287-3.185 6.199-3.185 3.528 0 5.583 1.782 5.583 5.448v9.618h-2.739v-2.528c-.79 1.883-2.535 2.869-4.968 2.869-2.945 0-4.761-1.428-4.761-4.007z" fill="#fff"/><path d="M109.312 130.996l-.238.489-.468-.278-1.951-1.163-.388-.231.191-.409c1.07-2.303 3.631-3.475 6.652-3.475 1.842 0 3.38.466 4.458 1.486 1.083 1.026 1.625 2.537 1.625 4.462v10.118h-3.739v-1.335c-1.047 1.117-2.595 1.676-4.468 1.676-1.547 0-2.864-.374-3.804-1.151-.953-.788-1.457-1.94-1.457-3.356 0-.909.229-1.669.646-2.294.414-.622.993-1.081 1.651-1.426 1.299-.682 2.976-.954 4.519-1.124a24 24 0 001.492-.194c.403-.072.678-.155.869-.257a.741.741 0 00.351-.356c.078-.167.13-.419.13-.82 0-.803-.213-1.295-.573-1.602-.378-.322-1.014-.526-2.044-.526-1.819 0-2.91.646-3.454 1.766zm6.106 4.344v-.121l-2.48.083.062.496h-.001l-.122.015c-.94.118-1.802.225-2.448.5-.326.139-.56.306-.714.509-.149.195-.249.458-.249.843 0 .541.166.918.462 1.169.309.263.835.454 1.676.454 1.11 0 2.054-.309 2.716-.924.655-.609 1.098-1.576 1.098-3.024z" stroke="#fff" stroke-opacity=".3"/><path d="M109.312 130.996l-.238.489-.468-.278-1.951-1.163-.388-.231.191-.409c1.07-2.303 3.631-3.475 6.652-3.475 1.842 0 3.38.466 4.458 1.486 1.083 1.026 1.625 2.537 1.625 4.462v10.118h-3.739v-1.335c-1.047 1.117-2.595 1.676-4.468 1.676-1.547 0-2.864-.374-3.804-1.151-.953-.788-1.457-1.94-1.457-3.356 0-.909.229-1.669.646-2.294.414-.622.993-1.081 1.651-1.426 1.299-.682 2.976-.954 4.519-1.124a24 24 0 001.492-.194c.403-.072.678-.155.869-.257a.741.741 0 00.351-.356c.078-.167.13-.419.13-.82 0-.803-.213-1.295-.573-1.602-.378-.322-1.014-.526-2.044-.526-1.819 0-2.91.646-3.454 1.766zm6.106 4.344v-.121l-2.48.083.062.496h-.001l-.122.015c-.94.118-1.802.225-2.448.5-.326.139-.56.306-.714.509-.149.195-.249.458-.249.843 0 .541.166.918.462 1.169.309.263.835.454 1.676.454 1.11 0 2.054-.309 2.716-.924.655-.609 1.098-1.576 1.098-3.024z" stroke="#C82C87" stroke-opacity=".1"/><path d="M130.032 133.802h2.637V129h-2.707c-2.465 0-3.63.658-3.63 2.401 0 1.82 1.575 2.401 3.7 2.401zm2.637 2.224h-2.775c-2.431 0-3.014.721-3.356 2.844l-.103.619c-.173.985-.41 1.605-.72 2.009h-2.842c.375-.644.548-1.162.753-2.287l.138-.784c.409-2.337 1.404-3.298 3.699-3.424v-.076c-1.953-.101-4.111-1.365-4.111-3.627 0-3.083 3.254-4.523 7.193-4.523h4.898v14.721h-2.774v-5.472z" fill="#fff"/><path d="M122.441 141.246c.335-.575.494-1.031.693-2.123l.137-.782s0 0 0 0 0 0 0 0c.213-1.215.592-2.165 1.294-2.82.254-.238.54-.427.858-.575a5.01 5.01 0 01-1.055-.628c-.885-.69-1.516-1.708-1.516-3.018 0-1.755.942-3.036 2.371-3.852 1.408-.804 3.302-1.171 5.322-1.171h5.398v15.721h-3.774v-5.472h-2.275c-1.193 0-1.78.184-2.126.497-.353.319-.566.869-.737 1.926h0v.002l-.102.619h0l-.001.005c-.179 1.016-.434 1.729-.816 2.227l-.15.196h-3.959l.438-.752zm7.591-7.944h2.137V129.5h-2.207c-1.211 0-1.997.166-2.471.469-.423.27-.659.689-.659 1.432 0 .381.081.669.211.891.13.223.323.407.588.557.547.309 1.367.453 2.401.453z" stroke="#fff" stroke-opacity=".3"/><path d="M122.441 141.246c.335-.575.494-1.031.693-2.123l.137-.782s0 0 0 0 0 0 0 0c.213-1.215.592-2.165 1.294-2.82.254-.238.54-.427.858-.575a5.01 5.01 0 01-1.055-.628c-.885-.69-1.516-1.708-1.516-3.018 0-1.755.942-3.036 2.371-3.852 1.408-.804 3.302-1.171 5.322-1.171h5.398v15.721h-3.774v-5.472h-2.275c-1.193 0-1.78.184-2.126.497-.353.319-.566.869-.737 1.926h0v.002l-.102.619h0l-.001.005c-.179 1.016-.434 1.729-.816 2.227l-.15.196h-3.959l.438-.752zm7.591-7.944h2.137V129.5h-2.207c-1.211 0-1.997.166-2.471.469-.423.27-.659.689-.659 1.432 0 .381.081.669.211.891.13.223.323.407.588.557.547.309 1.367.453 2.401.453z" stroke="#C82C87" stroke-opacity=".1"/><path d="M4.32 158.013c0-4.112 3.39-7.812 7.877-7.812 2.706 0 5 1.337 6.13 3.9l-2.122 1.237c-.925-1.812-2.365-2.737-4.145-2.737-2.808 0-4.863 2.287-4.863 5.412 0 3.013 1.917 5.2 4.93 5.2 2.022 0 3.598-.962 4.215-2.675l2.09 1.275c-.995 2.15-3.29 3.8-6.27 3.8-4.35 0-7.842-3.425-7.842-7.6z" fill="#fff"/><path d="M18.785 153.899l.18.409-.385.225-2.123 1.237-.457.267-.24-.471c-.85-1.668-2.131-2.465-3.7-2.465-2.483 0-4.363 2.012-4.363 4.912 0 1.401.444 2.573 1.202 3.39.753.813 1.85 1.31 3.229 1.31 1.854 0 3.212-.868 3.743-2.344l.208-.577.523.319 2.09 1.275.38.233-.187.404c-1.077 2.328-3.549 4.09-6.722 4.09-4.613 0-8.343-3.636-8.343-8.1 0-4.378 3.604-8.312 8.377-8.312 2.886 0 5.372 1.439 6.588 4.198z" stroke="#fff" stroke-opacity=".3"/><path d="M18.785 153.899l.18.409-.385.225-2.123 1.237-.457.267-.24-.471c-.85-1.668-2.131-2.465-3.7-2.465-2.483 0-4.363 2.012-4.363 4.912 0 1.401.444 2.573 1.202 3.39.753.813 1.85 1.31 3.229 1.31 1.854 0 3.212-.868 3.743-2.344l.208-.577.523.319 2.09 1.275.38.233-.187.404c-1.077 2.328-3.549 4.09-6.722 4.09-4.613 0-8.343-3.636-8.343-8.1 0-4.378 3.604-8.312 8.377-8.312 2.886 0 5.372 1.439 6.588 4.198z" stroke="#C82C87" stroke-opacity=".1"/><path d="M32.237 160.85c0-1.2-1.03-2.162-4.145-2.162h-2.98v4.462h3.22c2.876 0 3.905-.962 3.905-2.3zm-.584-6.125c0-1.312-1.198-2.062-3.528-2.062h-3.013v4.15h2.946c2.602 0 3.595-1.025 3.595-2.088zm-9.315-4.187h5.48c4.76 0 6.645 1.475 6.645 3.775 0 1.712-1.336 2.912-3.596 3.25v.062c2.842.275 4.28 1.575 4.28 3.5 0 2.425-2.33 4.138-6.953 4.138h-5.856v-14.725z" fill="#fff"/><path d="M21.838 150.538v-.5h5.98c2.416 0 4.187.371 5.37 1.099 1.221.752 1.775 1.861 1.775 3.176 0 .999-.396 1.862-1.116 2.511-.299.27-.649.499-1.044.688.625.211 1.159.498 1.591.861.835.701 1.253 1.651 1.253 2.752 0 1.4-.684 2.587-1.976 3.401-1.27.801-3.114 1.237-5.477 1.237h-6.356v-15.225zm9.899 10.312c0-.427-.168-.804-.663-1.103-.532-.322-1.46-.559-2.982-.559h-2.48v3.462h2.72c1.397 0 2.258-.236 2.755-.565.462-.306.65-.716.65-1.235zm-.584-6.125c0-.471-.2-.828-.646-1.094-.48-.285-1.257-.468-2.382-.468h-2.513v3.15h2.446c1.245 0 2.032-.247 2.493-.559.443-.301.602-.672.602-1.029z" stroke="#fff" stroke-opacity=".3"/><path d="M21.838 150.538v-.5h5.98c2.416 0 4.187.371 5.37 1.099 1.221.752 1.775 1.861 1.775 3.176 0 .999-.396 1.862-1.116 2.511-.299.27-.649.499-1.044.688.625.211 1.159.498 1.591.861.835.701 1.253 1.651 1.253 2.752 0 1.4-.684 2.587-1.976 3.401-1.27.801-3.114 1.237-5.477 1.237h-6.356v-15.225zm9.899 10.312c0-.427-.168-.804-.663-1.103-.532-.322-1.46-.559-2.982-.559h-2.48v3.462h2.72c1.397 0 2.258-.236 2.755-.565.462-.306.65-.716.65-1.235zm-.584-6.125c0-.471-.2-.828-.646-1.094-.48-.285-1.257-.468-2.382-.468h-2.513v3.15h2.446c1.245 0 2.032-.247 2.493-.559.443-.301.602-.672.602-1.029z" stroke="#C82C87" stroke-opacity=".1"/><path d="M50.664 157.901c0-3.113-2.09-5.3-4.76-5.3-2.672 0-4.762 2.187-4.762 5.3 0 3.125 2.09 5.312 4.761 5.312 2.671 0 4.761-2.187 4.761-5.312zm-12.398 0c0-4.1 3.562-7.7 7.637-7.7 4.076 0 7.638 3.6 7.638 7.7 0 4.112-3.562 7.712-7.638 7.712-4.075 0-7.637-3.6-7.637-7.712z" fill="#fff"/><path d="M50.164 157.901c0-2.879-1.907-4.8-4.26-4.8-2.355 0-4.262 1.921-4.262 4.8 0 2.892 1.908 4.812 4.261 4.812 2.354 0 4.261-1.92 4.261-4.812zm-12.398 0c0-4.372 3.782-8.2 8.137-8.2 4.357 0 8.138 3.828 8.138 8.2 0 4.384-3.78 8.212-8.138 8.212-4.356 0-8.137-3.828-8.137-8.212z" stroke="#fff" stroke-opacity=".3"/><path d="M50.164 157.901c0-2.879-1.907-4.8-4.26-4.8-2.355 0-4.262 1.921-4.262 4.8 0 2.892 1.908 4.812 4.261 4.812 2.354 0 4.261-1.92 4.261-4.812zm-12.398 0c0-4.372 3.782-8.2 8.137-8.2 4.357 0 8.138 3.828 8.138 8.2 0 4.384-3.78 8.212-8.138 8.212-4.356 0-8.137-3.828-8.137-8.212z" stroke="#C82C87" stroke-opacity=".1"/><path d="M57.756 150.538h.754c1.027 0 1.472-.025 1.883-.2v9.45c0 .65 0 1.237-.068 1.85.308-.513.686-1.063 1.06-1.575l6.783-9.525h2.638v14.725h-2.638v-9.238c0-.65 0-1.237.07-1.85a21.652 21.652 0 01-1.062 1.575l-6.783 9.513h-2.637v-14.725z" fill="#fff"/><path d="M57.256 150.538v-.5h1.254c1.05 0 1.387-.032 1.688-.16l.695-.297v10.309l.087-.12 6.781-9.522.15-.21h3.395v15.725h-3.638v-9.84l-.087.12-6.78 9.51-.15.21h-3.395v-15.225z" stroke="#fff" stroke-opacity=".3"/><path d="M57.256 150.538v-.5h1.254c1.05 0 1.387-.032 1.688-.16l.695-.297v10.309l.087-.12 6.781-9.522.15-.21h3.395v15.725h-3.638v-9.84l-.087.12-6.78 9.51-.15.21h-3.395v-15.225z" stroke="#C82C87" stroke-opacity=".1"/><path d="M5.45 174.313h.754c1.026 0 1.471-.037 1.883-.2v9.45c0 .65 0 1.238-.068 1.85.308-.512.685-1.062 1.061-1.575l6.782-9.525h2.637v14.725h-2.637v-9.237c0-.663 0-1.238.069-1.85a19.006 19.006 0 01-1.062 1.562l-6.782 9.525H5.449v-14.725z" fill="#fff"/><path d="M4.95 174.313v-.5h1.254c1.036 0 1.388-.042 1.699-.165l.684-.27v10.289l.088-.122 6.78-9.522.149-.21h3.395v15.725h-3.637v-9.849l-.09.12-6.778 9.519-.15.21H4.95v-15.225z" stroke="#fff" stroke-opacity=".3"/><path d="M4.95 174.313v-.5h1.254c1.036 0 1.388-.042 1.699-.165l.684-.27v10.289l.088-.122 6.78-9.522.149-.21h3.395v15.725h-3.637v-9.849l-.09.12-6.778 9.519-.15.21H4.95v-15.225z" stroke="#C82C87" stroke-opacity=".1"/><path d="M22.715 181.775c0-4.1 3.39-7.8 7.877-7.8 2.707 0 5.002 1.325 6.13 3.9l-2.122 1.238c-.925-1.813-2.364-2.75-4.145-2.75-2.808 0-4.864 2.3-4.864 5.412 0 3.025 1.919 5.213 4.933 5.213 2.02 0 3.597-.963 4.212-2.675l2.09 1.262c-.994 2.163-3.289 3.813-6.269 3.813-4.35 0-7.842-3.425-7.842-7.613z" fill="#fff"/><path d="M37.18 177.674l.18.409-.386.224-2.122 1.238-.457.266-.24-.471c-.853-1.67-2.133-2.477-3.7-2.477-2.482 0-4.364 2.023-4.364 4.912 0 1.407.445 2.583 1.203 3.401.754.815 1.85 1.312 3.23 1.312 1.854 0 3.212-.869 3.742-2.344l.206-.575.523.316 2.09 1.262.382.231-.187.406c-1.076 2.342-3.55 4.104-6.723 4.104-4.613 0-8.342-3.637-8.342-8.113 0-4.366 3.604-8.3 8.377-8.3 2.886 0 5.372 1.426 6.588 4.199z" stroke="#fff" stroke-opacity=".3"/><path d="M37.18 177.674l.18.409-.386.224-2.122 1.238-.457.266-.24-.471c-.853-1.67-2.133-2.477-3.7-2.477-2.482 0-4.364 2.023-4.364 4.912 0 1.407.445 2.583 1.203 3.401.754.815 1.85 1.312 3.23 1.312 1.854 0 3.212-.869 3.742-2.344l.206-.575.523.316 2.09 1.262.382.231-.187.406c-1.076 2.342-3.55 4.104-6.723 4.104-4.613 0-8.342-3.637-8.342-8.113 0-4.366 3.604-8.3 8.377-8.3 2.886 0 5.372 1.426 6.588 4.199z" stroke="#C82C87" stroke-opacity=".1"/><path d="M43.678 176.638h-5.035v-2.325h12.81v2.325H46.45v12.4h-2.773v-12.4z" fill="#fff"/><path d="M43.178 189.038v-11.9h-5.035v-3.325h13.81v3.325H46.95v12.4h-3.773v-.5z" stroke="#fff" stroke-opacity=".3"/><path d="M43.178 189.038v-11.9h-5.035v-3.325h13.81v3.325H46.95v12.4h-3.773v-.5z" stroke="#C82C87" stroke-opacity=".1"/><path d="M65.77 181.675c0-3.112-2.088-5.312-4.76-5.312-2.672 0-4.76 2.2-4.76 5.312 0 3.125 2.088 5.313 4.76 5.313 2.672 0 4.76-2.188 4.76-5.313zm-12.397 0c0-4.112 3.561-7.7 7.638-7.7 4.075 0 7.637 3.588 7.637 7.7 0 4.113-3.562 7.713-7.637 7.713-4.077 0-7.638-3.6-7.638-7.713z" fill="#fff"/><path d="M65.27 181.675c0-2.881-1.907-4.812-4.26-4.812-2.353 0-4.26 1.931-4.26 4.812 0 2.893 1.906 4.813 4.26 4.813s4.26-1.92 4.26-4.813zm-12.397 0c0-4.385 3.782-8.2 8.138-8.2 4.354 0 8.137 3.815 8.137 8.2 0 4.384-3.782 8.213-8.137 8.213-4.358 0-8.138-3.829-8.138-8.213z" stroke="#fff" stroke-opacity=".3"/><path d="M65.27 181.675c0-2.881-1.907-4.812-4.26-4.812-2.353 0-4.26 1.931-4.26 4.812 0 2.893 1.906 4.813 4.26 4.813s4.26-1.92 4.26-4.813zm-12.397 0c0-4.385 3.782-8.2 8.138-8.2 4.354 0 8.137 3.815 8.137 8.2 0 4.384-3.782 8.213-8.137 8.213-4.358 0-8.138-3.829-8.138-8.213z" stroke="#C82C87" stroke-opacity=".1"/><path d="M85.124 181.676c0-3.113-2.157-5.313-4.828-5.313-2.364 0-4.728 2.2-4.728 5.313 0 3.125 2.364 5.312 4.728 5.312 2.671 0 4.828-2.187 4.828-5.312zm-12.26-7.363h.923c1.029 0 1.474-.037 1.885-.2v3.563c.855-2.1 2.774-3.7 5.343-3.7 3.665 0 6.987 3.525 6.987 7.7 0 4.187-3.322 7.712-6.987 7.712-2.57 0-4.488-1.612-5.343-3.7v10.55h-2.809v-21.925z" fill="#fff"/><path d="M72.363 174.313v-.5h1.424c1.038 0 1.39-.042 1.701-.165l.684-.27v2.45c1.106-1.403 2.78-2.352 4.843-2.352 3.98 0 7.487 3.79 7.487 8.2 0 4.422-3.507 8.212-7.487 8.212-2.064 0-3.737-.957-4.843-2.357v9.207h-3.809v-22.425zm12.261 7.363c0-2.871-1.967-4.813-4.328-4.813-2.061 0-4.228 1.949-4.228 4.813 0 2.875 2.166 4.812 4.228 4.812 2.362 0 4.328-1.929 4.328-4.812z" stroke="#fff" stroke-opacity=".3"/><path d="M72.363 174.313v-.5h1.424c1.038 0 1.39-.042 1.701-.165l.684-.27v2.45c1.106-1.403 2.78-2.352 4.843-2.352 3.98 0 7.487 3.79 7.487 8.2 0 4.422-3.507 8.212-7.487 8.212-2.064 0-3.737-.957-4.843-2.357v9.207h-3.809v-22.425zm12.261 7.363c0-2.871-1.967-4.813-4.328-4.813-2.061 0-4.228 1.949-4.228 4.813 0 2.875 2.166 4.812 4.228 4.812 2.362 0 4.328-1.929 4.328-4.812z" stroke="#C82C87" stroke-opacity=".1"/><path d="M92.217 174.313h.754c1.027 0 1.472-.037 1.883-.2v9.45c0 .65 0 1.238-.068 1.85.308-.512.685-1.062 1.06-1.575l6.783-9.525h2.638v14.725h-2.638v-9.237c0-.663 0-1.238.069-1.85a19.143 19.143 0 01-1.062 1.562l-6.782 9.525h-2.637v-14.725z" fill="#fff"/><path d="M91.717 174.313v-.5h1.254c1.036 0 1.389-.042 1.7-.165l.683-.27v10.287l.088-.12 6.78-9.522.15-.21h3.395v15.725h-3.638v-9.85l-.09.121-6.777 9.519-.15.21h-3.395v-15.225z" stroke="#fff" stroke-opacity=".3"/><path d="M91.717 174.313v-.5h1.254c1.036 0 1.389-.042 1.7-.165l.683-.27v10.287l.088-.12 6.78-9.522.15-.21h3.395v15.725h-3.638v-9.85l-.09.121-6.777 9.519-.15.21h-3.395v-15.225z" stroke="#C82C87" stroke-opacity=".1"/><path d="M110.611 174.313h.754c1.028 0 1.473-.037 1.884-.2v9.45c0 .65 0 1.238-.068 1.85.308-.512.685-1.062 1.062-1.575l6.781-9.525h2.637v14.725h-2.637v-9.237c0-.663 0-1.238.069-1.85a18.892 18.892 0 01-1.062 1.562l-6.782 9.525h-2.638v-14.725z" fill="#fff"/><path d="M110.111 174.313v-.5h1.254c1.037 0 1.389-.042 1.7-.165l.684-.27v10.288l.088-.121 6.779-9.522.15-.21h3.395v15.725h-3.637v-9.849l-.089.12-6.779 9.519-.149.21h-3.396v-15.225z" stroke="#fff" stroke-opacity=".3"/><path d="M110.111 174.313v-.5h1.254c1.037 0 1.389-.042 1.7-.165l.684-.27v10.288l.088-.121 6.779-9.522.15-.21h3.395v15.725h-3.637v-9.849l-.089.12-6.779 9.519-.149.21h-3.396v-15.225z" stroke="#C82C87" stroke-opacity=".1"/><path d="M142.795 88.683c-3.562 0-5.435-1.876-5.435-5.065 0-13.119 33.178-53.615 33.178-71.049 0-5.052-3.185-10.305-9.372-10.305-14.621 0-41.803 24.75-66.362 56.992a219.71 219.71 0 005.813-10.881c12.184-24.174 14.434-30.928 14.434-35.806 0-5.052-2.999-10.305-9.372-10.305-8.999 0-24.556 10.305-41.241 26.426-9.186 9.005-18.37 19.497-27.182 31.129C47.19 40.509 56.94 19.511 56.94 12.006c0-4.301-2.436-9.742-9.561-9.742-6.373 0-17.62 6.754-31.305 19.123l1.5 1.876c8.436-7.692 14.434-10.881 18.37-10.881 3.188 0 4.874 1.876 4.874 4.877 0 7.357-13.056 32.898-24.83 54.299h-.017C11.312 79.785 6.657 88.013 2 96.228h15.358c2.49-4.436 4.981-8.885 7.47-13.334 1.365-2.385 2.832-4.971 4.368-7.705C40.254 58.693 53.19 42.573 65.937 30.566c11.998-11.243 21.37-18.56 27.932-18.56 3.56 0 4.872 2.252 4.872 5.066 0 4.315-3.937 13.306-11.996 29.24L72.44 72.938h-.01c-2.974 5.548-5.949 11.096-8.923 16.63l-2.443 4.556c-.006 0-.009.013-.014.027-.373.697-.744 1.393-1.116 2.077H75.26c.098-.188.196-.375.292-.576.045-.067.09-.134.132-.228.153-.308.301-.603.453-.911 2.244-4.422 4.49-8.831 6.736-13.253 1.138-2.171 2.246-4.262 3.309-6.258 21.746-31.679 51.363-62.995 63.174-62.995 3.373 0 4.873 2.063 4.873 5.065.187 13.306-33.367 51.739-33.367 71.049 0 4.502 2.436 10.867 10.498 10.867 5.622 0 16.494-6.552 30.18-19.122l-1.498-1.863c-7.687 7.116-13.498 10.68-17.248 10.68z" fill="#fff"/><path d="M101.064 48.6c6.093-12.089 9.71-19.838 11.805-25.181 2.095-5.346 2.682-8.321 2.682-10.85 0-2.617-.776-5.31-2.405-7.358-1.64-2.063-4.126-3.447-7.467-3.447-4.654 0-10.898 2.649-18.01 7.248-7.135 4.614-15.22 11.243-23.579 19.318l-.002.003C56.02 36.24 47.957 45.292 40.147 55.25c4.112-8.144 8.057-16.37 11.136-23.568 1.842-4.308 3.378-8.255 4.453-11.601 1.072-3.333 1.703-6.115 1.703-8.074 0-2.235-.631-4.788-2.217-6.795-1.6-2.025-4.138-3.448-7.844-3.448-3.331 0-7.836 1.752-13.17 4.996-5.354 3.256-11.612 8.058-18.47 14.256l-.35.315.294.368 1.5 1.876.333.417.394-.36c4.203-3.831 7.783-6.527 10.787-8.261 3.011-1.74 5.405-2.49 7.247-2.49 1.496 0 2.57.438 3.274 1.162.705.727 1.1 1.807 1.1 3.216 0 1.738-.783 4.636-2.192 8.404-1.401 3.744-3.395 8.28-5.76 13.265-4.69 9.886-10.831 21.503-16.673 32.13h-.014l-.143.253-3.254 5.748C8.708 83.371 5.137 89.68 1.565 95.981l-.423.747H17.65l.143-.255c2.49-4.436 4.98-8.884 7.47-13.332 1.362-2.381 2.826-4.962 4.358-7.69C40.664 58.981 53.572 42.9 66.28 30.93c5.995-5.617 11.315-10.236 15.946-13.449 4.65-3.226 8.525-4.975 11.643-4.975 1.669 0 2.732.523 3.39 1.3.67.793.982 1.927.982 3.266 0 2.045-.943 5.287-2.937 10.07-1.984 4.76-4.975 10.976-9.002 18.938L72.14 72.438h-.01l-.142.264a24774.95 24774.95 0 01-8.922 16.63h0l-2.42 4.513c-.029.041-.044.077-.049.088h0l-.004.01-.139.26c-.321.6-.64 1.198-.96 1.785l-.403.74h16.473l.14-.269.002-.003c.092-.176.188-.36.283-.557.04-.06.097-.148.148-.262l.175-.352c.091-.182.182-.364.273-.55 1.222-2.407 2.444-4.81 3.666-7.213 1.022-2.01 2.045-4.02 3.067-6.033 1.132-2.16 2.235-4.24 3.293-6.228 10.855-15.81 23.671-31.526 35.241-43.286 5.789-5.883 11.256-10.766 16.001-14.174 2.373-1.704 4.556-3.033 6.501-3.933 1.95-.904 3.629-1.361 5.003-1.361 1.581 0 2.649.48 3.329 1.24.688.77 1.044 1.9 1.044 3.325v.007c.022 1.57-.456 3.555-1.347 5.896-.889 2.333-2.173 4.98-3.728 7.859-2.568 4.755-5.855 10.108-9.28 15.686a2194.15 2194.15 0 00-2.185 3.564c-4.182 6.842-8.383 13.892-11.538 20.443-3.147 6.537-5.289 12.646-5.289 17.594 0 2.328.628 5.16 2.326 7.422 1.714 2.285 4.49 3.945 8.672 3.945 2.963 0 7.191-1.708 12.331-4.923 5.166-3.231 11.33-8.033 18.187-14.33l.345-.318-.293-.365-1.499-1.862-.336-.418-.393.364c-3.83 3.546-7.178 6.193-10.023 7.95-2.858 1.766-5.151 2.597-6.885 2.597-1.697 0-2.916-.446-3.709-1.199-.789-.75-1.226-1.87-1.226-3.366 0-1.549.493-3.549 1.393-5.927.897-2.37 2.183-5.076 3.734-8.025 2.662-5.06 6.086-10.801 9.627-16.738l1.765-2.96c4.146-6.97 8.304-14.095 11.425-20.57 3.112-6.456 5.234-12.346 5.234-16.829 0-2.624-.826-5.315-2.477-7.36-1.66-2.058-4.144-3.445-7.395-3.445-3.783 0-8.313 1.596-13.33 4.436-5.027 2.847-10.591 6.97-16.453 12.093-10.481 9.158-21.946 21.536-33.041 35.586.97-1.824 1.87-3.576 2.722-5.28zm0 0l.001-.001-.448-.224.447.225s0 0 0 0zM60.502 96.227l-.13.24-.44-.24v-.5h.272c.23-.427.46-.858.691-1.29l.154-.287a.132.132 0 00.003-.01c.004-.01.006-.017.011-.017l-.561 2.104zm0 0H75.26c.098-.188.196-.375.292-.576l.008-.012c.042-.063.084-.128.124-.216l.181-.365.272-.546c1.222-2.41 2.445-4.814 3.668-7.219l3.068-6.034c1.138-2.171 2.246-4.262 3.309-6.258l-25.68 21.227zm11.926-23.29h.011-.01zm0 0c-2.973 5.548-5.948 11.096-8.922 16.63l8.922-16.63zm-55.07 23.29H2.575l-.14.246L2 96.228v-.5h.283c3.478-6.135 6.955-12.278 10.433-18.422l3.254-5.748h.017c11.774-21.4 24.83-46.942 24.83-54.299 0-3.001-1.686-4.877-4.874-4.877-3.878 0-9.757 3.096-18 10.544l-.585 73.302zm0 0c2.49-4.436 4.981-8.885 7.47-13.334l-7.47 13.334zm30.02-93.964c-6.373 0-17.62 6.754-31.305 19.123l22.461 35.937C48.01 38.73 56.94 19.189 56.94 12.007c0-4.302-2.436-9.743-9.561-9.743zm17.06 26.426c-8.596 8.427-17.191 18.156-25.48 28.902l25.48-28.902z" stroke="#fff" stroke-opacity=".3"/><path d="M101.064 48.6c6.093-12.089 9.71-19.838 11.805-25.181 2.095-5.346 2.682-8.321 2.682-10.85 0-2.617-.776-5.31-2.405-7.358-1.64-2.063-4.126-3.447-7.467-3.447-4.654 0-10.898 2.649-18.01 7.248-7.135 4.614-15.22 11.243-23.579 19.318l-.002.003C56.02 36.24 47.957 45.292 40.147 55.25c4.112-8.144 8.057-16.37 11.136-23.568 1.842-4.308 3.378-8.255 4.453-11.601 1.072-3.333 1.703-6.115 1.703-8.074 0-2.235-.631-4.788-2.217-6.795-1.6-2.025-4.138-3.448-7.844-3.448-3.331 0-7.836 1.752-13.17 4.996-5.354 3.256-11.612 8.058-18.47 14.256l-.35.315.294.368 1.5 1.876.333.417.394-.36c4.203-3.831 7.783-6.527 10.787-8.261 3.011-1.74 5.405-2.49 7.247-2.49 1.496 0 2.57.438 3.274 1.162.705.727 1.1 1.807 1.1 3.216 0 1.738-.783 4.636-2.192 8.404-1.401 3.744-3.395 8.28-5.76 13.265-4.69 9.886-10.831 21.503-16.673 32.13h-.014l-.143.253-3.254 5.748C8.708 83.371 5.137 89.68 1.565 95.981l-.423.747H17.65l.143-.255c2.49-4.436 4.98-8.884 7.47-13.332 1.362-2.381 2.826-4.962 4.358-7.69C40.664 58.981 53.572 42.9 66.28 30.93c5.995-5.617 11.315-10.236 15.946-13.449 4.65-3.226 8.525-4.975 11.643-4.975 1.669 0 2.732.523 3.39 1.3.67.793.982 1.927.982 3.266 0 2.045-.943 5.287-2.937 10.07-1.984 4.76-4.975 10.976-9.002 18.938L72.14 72.438h-.01l-.142.264a24774.95 24774.95 0 01-8.922 16.63h0l-2.42 4.513c-.029.041-.044.077-.049.088h0l-.004.01-.139.26c-.321.6-.64 1.198-.96 1.785l-.403.74h16.473l.14-.269.002-.003c.092-.176.188-.36.283-.557.04-.06.097-.148.148-.262l.175-.352c.091-.182.182-.364.273-.55 1.222-2.407 2.444-4.81 3.666-7.213 1.022-2.01 2.045-4.02 3.067-6.033 1.132-2.16 2.235-4.24 3.293-6.228 10.855-15.81 23.671-31.526 35.241-43.286 5.789-5.883 11.256-10.766 16.001-14.174 2.373-1.704 4.556-3.033 6.501-3.933 1.95-.904 3.629-1.361 5.003-1.361 1.581 0 2.649.48 3.329 1.24.688.77 1.044 1.9 1.044 3.325v.007c.022 1.57-.456 3.555-1.347 5.896-.889 2.333-2.173 4.98-3.728 7.859-2.568 4.755-5.855 10.108-9.28 15.686a2194.15 2194.15 0 00-2.185 3.564c-4.182 6.842-8.383 13.892-11.538 20.443-3.147 6.537-5.289 12.646-5.289 17.594 0 2.328.628 5.16 2.326 7.422 1.714 2.285 4.49 3.945 8.672 3.945 2.963 0 7.191-1.708 12.331-4.923 5.166-3.231 11.33-8.033 18.187-14.33l.345-.318-.293-.365-1.499-1.862-.336-.418-.393.364c-3.83 3.546-7.178 6.193-10.023 7.95-2.858 1.766-5.151 2.597-6.885 2.597-1.697 0-2.916-.446-3.709-1.199-.789-.75-1.226-1.87-1.226-3.366 0-1.549.493-3.549 1.393-5.927.897-2.37 2.183-5.076 3.734-8.025 2.662-5.06 6.086-10.801 9.627-16.738l1.765-2.96c4.146-6.97 8.304-14.095 11.425-20.57 3.112-6.456 5.234-12.346 5.234-16.829 0-2.624-.826-5.315-2.477-7.36-1.66-2.058-4.144-3.445-7.395-3.445-3.783 0-8.313 1.596-13.33 4.436-5.027 2.847-10.591 6.97-16.453 12.093-10.481 9.158-21.946 21.536-33.041 35.586.97-1.824 1.87-3.576 2.722-5.28zm0 0l.001-.001-.448-.224.447.225s0 0 0 0zM60.502 96.227l-.13.24-.44-.24v-.5h.272c.23-.427.46-.858.691-1.29l.154-.287a.132.132 0 00.003-.01c.004-.01.006-.017.011-.017l-.561 2.104zm0 0H75.26c.098-.188.196-.375.292-.576l.008-.012c.042-.063.084-.128.124-.216l.181-.365.272-.546c1.222-2.41 2.445-4.814 3.668-7.219l3.068-6.034c1.138-2.171 2.246-4.262 3.309-6.258l-25.68 21.227zm11.926-23.29h.011-.01zm0 0c-2.973 5.548-5.948 11.096-8.922 16.63l8.922-16.63zm-55.07 23.29H2.575l-.14.246L2 96.228v-.5h.283c3.478-6.135 6.955-12.278 10.433-18.422l3.254-5.748h.017c11.774-21.4 24.83-46.942 24.83-54.299 0-3.001-1.686-4.877-4.874-4.877-3.878 0-9.757 3.096-18 10.544l-.585 73.302zm0 0c2.49-4.436 4.981-8.885 7.47-13.334l-7.47 13.334zm30.02-93.964c-6.373 0-17.62 6.754-31.305 19.123l22.461 35.937C48.01 38.73 56.94 19.189 56.94 12.007c0-4.302-2.436-9.743-9.561-9.743zm17.06 26.426c-8.596 8.427-17.191 18.156-25.48 28.902l25.48-28.902z" stroke="#C82C87" stroke-opacity=".1"/><path d="M439.342 135.954c3.958-6.363 7.914-12.739 11.872-19.102H435.22c-3.457 5.74-6.916 11.492-10.374 17.231-12.176 17.027-25.638 33.469-37.238 45.635-11.66 12.217-20.498 19.369-26.891 19.369-4.701 0-6.206-3.016-6.206-6.019 0-13.159 33.472-54.162 33.472-71.087 0-4.327-2.445-9.774-9.776-9.774-6.396 0-17.679 6.771-31.218 19.178l1.504 1.884c8.276-7.712 14.293-10.716 18.242-10.716 3.196 0 4.512 1.693 4.512 4.696 0 14.482-33.661 54.162-33.661 69.764 0 7.521 6.395 12.229 12.788 12.229 9.59 0 23.506-11.097 39.114-27.831 7.897-8.463 16.36-18.427 24.634-29.155-9.402 16.925-17.301 34.232-17.301 45.889 0 4.518 2.069 11.097 10.155 11.097 5.642 0 16.925-6.579 30.274-19.19l-1.502-1.871c-7.712 7.139-13.352 10.524-17.302 10.524-3.385 0-5.077-2.061-5.077-5.637 0-6.389 4.326-17.868 12.411-33.291 4.248-8.069 8.916-16.124 13.562-23.823z" fill="#fff"/><path d="M410.797 157.318c-7.08 8.928-14.216 17.224-20.943 24.434-7.814 8.378-15.219 15.361-21.884 20.253-6.645 4.878-12.632 7.737-17.596 7.737-6.609 0-13.288-4.876-13.288-12.729 0-4.035 2.161-9.539 5.315-15.675 3.166-6.16 7.384-13.052 11.59-19.889l.465-.757c4.054-6.588 8.059-13.098 11.089-18.859 1.573-2.99 2.877-5.768 3.787-8.241.912-2.479 1.415-4.618 1.415-6.343 0-1.44-.317-2.468-.927-3.137-.601-.659-1.572-1.059-3.085-1.059-1.855 0-4.259.709-7.252 2.401-2.988 1.69-6.529 4.342-10.649 8.18l-.395.368-.336-.421-1.505-1.884-.291-.365.344-.315c6.785-6.218 13.017-11.035 18.365-14.3 5.329-3.254 9.848-5.01 13.191-5.01 3.805 0 6.397 1.421 8.027 3.452 1.616 2.012 2.249 4.575 2.249 6.822 0 4.358-2.143 10.187-5.281 16.616-3.148 6.452-7.343 13.592-11.526 20.596-.526.882-1.052 1.761-1.576 2.636-3.645 6.09-7.18 11.996-9.916 17.193-1.565 2.971-2.862 5.698-3.767 8.085-.908 2.395-1.406 4.407-1.406 5.961 0 1.427.359 2.801 1.22 3.811.85.996 2.249 1.708 4.486 1.708 3.027 0 6.724-1.703 11.172-5.005 4.432-3.289 9.533-8.107 15.357-14.209 11.578-12.142 25.02-28.559 37.182-45.565 1.721-2.856 3.442-5.715 5.163-8.575l.014-.023c1.729-2.873 3.458-5.746 5.187-8.616l.146-.242h17.176l-.475.764c-1.979 3.182-3.958 6.366-5.936 9.551l-.023.037-5.911 9.511c-4.643 7.693-9.305 15.739-13.546 23.795-4.037 7.7-7.13 14.406-9.212 19.976-2.087 5.581-3.142 9.98-3.142 13.082 0 1.717.407 2.99 1.144 3.829.729.828 1.845 1.308 3.433 1.308 1.842 0 4.146-.793 6.981-2.512 2.828-1.715 6.138-4.321 9.982-7.879l.393-.365.336.419 1.502 1.871.289.359-.336.317c-6.692 6.322-12.877 11.143-18.107 14.386-5.205 3.228-9.539 4.941-12.51 4.941-4.202 0-6.897-1.721-8.521-4.07-1.605-2.32-2.134-5.206-2.134-7.527 0-5.925 2.003-13.237 5.16-21.154 2.502-6.275 5.741-12.958 9.316-19.673z" stroke="#fff" stroke-opacity=".3"/><path d="M410.797 157.318c-7.08 8.928-14.216 17.224-20.943 24.434-7.814 8.378-15.219 15.361-21.884 20.253-6.645 4.878-12.632 7.737-17.596 7.737-6.609 0-13.288-4.876-13.288-12.729 0-4.035 2.161-9.539 5.315-15.675 3.166-6.16 7.384-13.052 11.59-19.889l.465-.757c4.054-6.588 8.059-13.098 11.089-18.859 1.573-2.99 2.877-5.768 3.787-8.241.912-2.479 1.415-4.618 1.415-6.343 0-1.44-.317-2.468-.927-3.137-.601-.659-1.572-1.059-3.085-1.059-1.855 0-4.259.709-7.252 2.401-2.988 1.69-6.529 4.342-10.649 8.18l-.395.368-.336-.421-1.505-1.884-.291-.365.344-.315c6.785-6.218 13.017-11.035 18.365-14.3 5.329-3.254 9.848-5.01 13.191-5.01 3.805 0 6.397 1.421 8.027 3.452 1.616 2.012 2.249 4.575 2.249 6.822 0 4.358-2.143 10.187-5.281 16.616-3.148 6.452-7.343 13.592-11.526 20.596-.526.882-1.052 1.761-1.576 2.636-3.645 6.09-7.18 11.996-9.916 17.193-1.565 2.971-2.862 5.698-3.767 8.085-.908 2.395-1.406 4.407-1.406 5.961 0 1.427.359 2.801 1.22 3.811.85.996 2.249 1.708 4.486 1.708 3.027 0 6.724-1.703 11.172-5.005 4.432-3.289 9.533-8.107 15.357-14.209 11.578-12.142 25.02-28.559 37.182-45.565 1.721-2.856 3.442-5.715 5.163-8.575l.014-.023c1.729-2.873 3.458-5.746 5.187-8.616l.146-.242h17.176l-.475.764c-1.979 3.182-3.958 6.366-5.936 9.551l-.023.037-5.911 9.511c-4.643 7.693-9.305 15.739-13.546 23.795-4.037 7.7-7.13 14.406-9.212 19.976-2.087 5.581-3.142 9.98-3.142 13.082 0 1.717.407 2.99 1.144 3.829.729.828 1.845 1.308 3.433 1.308 1.842 0 4.146-.793 6.981-2.512 2.828-1.715 6.138-4.321 9.982-7.879l.393-.365.336.419 1.502 1.871.289.359-.336.317c-6.692 6.322-12.877 11.143-18.107 14.386-5.205 3.228-9.539 4.941-12.51 4.941-4.202 0-6.897-1.721-8.521-4.07-1.605-2.32-2.134-5.206-2.134-7.527 0-5.925 2.003-13.237 5.16-21.154 2.502-6.275 5.741-12.958 9.316-19.673z" stroke="#C82C87" stroke-opacity=".1"/></svg>